<svg width="19" height="19" viewBox="0 0 19 19" fill="none" xmlns="http://www.w3.org/2000/svg">
<path d="M13.1663 0.75H5.83375C2.64875 0.75 0.75 2.64875 0.75 5.83375V13.1575C0.75 16.3513 2.64875 18.25 5.83375 18.25H13.1575C16.3425 18.25 18.2412 16.3513 18.2412 13.1663V5.83375C18.25 2.64875 16.3513 0.75 13.1663 0.75ZM13.6825 7.4875L8.72125 12.4488C8.59875 12.5713 8.4325 12.6413 8.2575 12.6413C8.0825 12.6413 7.91625 12.5713 7.79375 12.4488L5.3175 9.9725C5.06375 9.71875 5.06375 9.29875 5.3175 9.045C5.57125 8.79125 5.99125 8.79125 6.245 9.045L8.2575 11.0575L12.755 6.56C13.0087 6.30625 13.4288 6.30625 13.6825 6.56C13.9363 6.81375 13.9363 7.225 13.6825 7.4875Z" fill="url(#paint0_linear_1186_278)"/>
<defs>
<linearGradient id="paint0_linear_1186_278" x1="-1.28387" y1="25.425" x2="26.8043" y2="5.20183" gradientUnits="userSpaceOnUse">
<stop stop-color="#FAD502"/>
<stop offset="1" stop-color="#C56807"/>
</linearGradient>
</defs>
</svg>
