<svg width="26" height="26" viewBox="0 0 26 26" fill="none" xmlns="http://www.w3.org/2000/svg">
	<path d="M24.375 13C24.375 19.279 19.2847 24.375 13 24.375C6.71531 24.375 1.625 19.279 1.625 13C1.625 6.71531 6.71531 1.625 13 1.625C19.2847 1.625 24.375 6.71531 24.375 13Z" fill="white" />
	<path d="M18.3317 10.1216C18.2696 10.1578 16.792 10.922 16.792 12.6164C16.8616 14.5487 18.6567 15.2264 18.6875 15.2264C18.6567 15.2626 18.4165 16.1495 17.7049 17.0792C17.1402 17.8801 16.5134 18.6875 15.5616 18.6875C14.6563 18.6875 14.3313 18.1537 13.2866 18.1537C12.1648 18.1537 11.8473 18.6875 10.9884 18.6875C10.0366 18.6875 9.36341 17.8368 8.76791 17.0435C7.99427 16.0051 7.33669 14.3756 7.31348 12.8111C7.29784 11.982 7.46841 11.167 7.90141 10.4748C8.51255 9.5084 9.60363 8.85238 10.7951 8.83075C11.7081 8.80206 12.5206 9.41482 13.0777 9.41482C13.6116 9.41482 14.6098 8.83075 15.7393 8.83075C16.2268 8.83122 17.5268 8.96807 18.3317 10.1216ZM13.0005 8.66522C12.838 7.90809 13.2866 7.15096 13.7045 6.668C14.2384 6.08393 15.0817 5.6875 15.8089 5.6875C15.8553 6.44463 15.5611 7.18717 15.0353 7.72798C14.5634 8.31205 13.7509 8.75175 13.0005 8.66522Z" fill="#242733" />
</svg>
