<svg width="18" height="11" viewBox="0 0 18 11" fill="none" xmlns="http://www.w3.org/2000/svg">
	<path d="M14.625 0.416586C14.2583 0.366586 13.8416 0.341585 13.375 0.333252H4.62496C4.15829 0.341585 3.74163 0.366586 3.37496 0.416586C1.24996 0.674919 0.666626 1.71659 0.666626 4.49992V6.16659C0.666626 9.49992 1.49996 10.3333 4.83329 10.3333H13.1666C16.5 10.3333 17.3333 9.49992 17.3333 6.16659V4.49992C17.3333 1.71659 16.75 0.674919 14.625 0.416586ZM6.25829 5.92492C6.09996 6.07492 5.88329 6.16659 5.66663 6.16659C5.55829 6.16659 5.44996 6.14159 5.34996 6.09992C5.24163 6.05825 5.15829 5.99992 5.07496 5.92492C4.92496 5.76659 4.83329 5.54992 4.83329 5.33325C4.83329 5.22492 4.85829 5.11659 4.89996 5.01659C4.94163 4.91659 4.99996 4.82492 5.07496 4.74159C5.15829 4.66659 5.24163 4.60825 5.34996 4.56659C5.65829 4.43325 6.02496 4.50825 6.25829 4.74159C6.33329 4.82492 6.39163 4.91659 6.43329 5.01659C6.47496 5.11659 6.49996 5.22492 6.49996 5.33325C6.49996 5.54992 6.40829 5.76659 6.25829 5.92492ZM9.76663 5.64992C9.72496 5.74992 9.66663 5.84159 9.59163 5.92492C9.43329 6.07492 9.21663 6.16659 8.99996 6.16659C8.77496 6.16659 8.56663 6.07492 8.40829 5.92492C8.33329 5.84159 8.27496 5.74992 8.23329 5.64992C8.19163 5.54992 8.16663 5.44159 8.16663 5.33325C8.16663 5.10825 8.25829 4.89992 8.40829 4.74159C8.71663 4.43325 9.27496 4.43325 9.59163 4.74159C9.74163 4.89992 9.83329 5.10825 9.83329 5.33325C9.83329 5.44159 9.80829 5.54992 9.76663 5.64992ZM12.925 5.92492C12.7666 6.07492 12.55 6.16659 12.3333 6.16659C12.1166 6.16659 11.9 6.07492 11.7416 5.92492C11.5916 5.76659 11.5 5.55825 11.5 5.33325C11.5 5.10825 11.5916 4.89992 11.7416 4.74159C12.0583 4.43325 12.6166 4.43325 12.925 4.74159C12.9583 4.78325 12.9916 4.82492 13.025 4.87492C13.0583 4.91659 13.0833 4.96659 13.1 5.01659C13.125 5.06659 13.1416 5.11659 13.15 5.16659C13.1583 5.22492 13.1666 5.28325 13.1666 5.33325C13.1666 5.54992 13.075 5.76659 12.925 5.92492Z" fill="url(#paint0_linear_1142_168)" />
	<defs>
		<linearGradient id="paint0_linear_1142_168" x1="-1.27136" y1="14.4333" x2="15.3741" y2="-5.55091" gradientUnits="userSpaceOnUse">
			<stop stop-color="#FAD502" />
			<stop offset="1" stop-color="#C56807" />
		</linearGradient>
	</defs>
</svg>
