<svg width="176" height="23" viewBox="0 0 176 23" fill="none" xmlns="http://www.w3.org/2000/svg">
	<path d="M55.0295 21.0758L50.3648 14.3709L45.7839 21.0758H40.6515L47.7986 11.2514L41.01 1.7583H46.0878L50.5304 8.02274L54.8912 1.7583H59.7215L52.9874 11.0858L60.191 21.0758H55.0295Z" fill="white" />
	<path d="M65.3634 20.124C63.7709 19.2686 62.5206 18.0819 61.6106 16.5641C60.7006 15.0462 60.2438 13.3317 60.2438 11.4171C60.2438 9.50247 60.6988 7.78802 61.6106 6.27014C62.5224 4.75226 63.7728 3.56562 65.3634 2.71022C66.9541 1.85482 68.745 1.42712 70.7306 1.42712C72.405 1.42712 73.9174 1.72196 75.2697 2.31164C76.622 2.90132 77.7576 3.74762 78.6786 4.85054L75.8084 7.49864C74.5017 5.99168 72.8837 5.23638 70.9508 5.23638C69.7551 5.23638 68.6886 5.49846 67.7495 6.02262C66.8103 6.54678 66.0805 7.27842 65.5545 8.21572C65.0304 9.15484 64.7683 10.2214 64.7683 11.4171C64.7683 12.6128 65.0304 13.6794 65.5545 14.6185C66.0787 15.5558 66.8103 16.2874 67.7495 16.8116C68.6868 17.3357 69.7551 17.5978 70.9508 17.5978C72.8819 17.5978 74.5017 16.8352 75.8084 15.3064L78.6786 17.9564C77.7576 19.0775 76.6183 19.9347 75.257 20.5226C73.8956 21.1104 72.3777 21.4053 70.7033 21.4053C68.7341 21.4071 66.9541 20.9794 65.3634 20.124Z" fill="white" />
	<path d="M87.0267 6.55946C87.9003 6.19182 88.9068 6.008 90.0479 6.008V9.98105C89.5692 9.94465 89.2471 9.92646 89.0815 9.92646C87.8493 9.92646 86.8829 10.2723 86.184 10.962C85.4852 11.6518 85.1357 12.6874 85.1357 14.0651V21.0758H80.8314V6.22822H84.9428V8.18836C85.4579 7.46946 86.1531 6.9271 87.0267 6.55946Z" fill="white" />
	<path d="M106.386 14.8659H95.1551C95.3571 15.7869 95.8358 16.513 96.5892 17.0463C97.3427 17.5796 98.2818 17.8471 99.4048 17.8471C100.178 17.8471 100.863 17.7324 101.461 17.5013C102.058 17.272 102.615 16.908 103.13 16.4129L105.422 18.8954C104.024 20.497 101.982 21.296 99.2956 21.296C97.6212 21.296 96.1397 20.9684 94.853 20.3168C93.5644 19.6635 92.5707 18.7571 91.8718 17.5978C91.1729 16.4384 90.8235 15.1244 90.8235 13.652C90.8235 12.1978 91.1693 10.8874 91.8591 9.71898C92.5488 8.55054 93.4971 7.64054 94.7019 6.98716C95.9067 6.33378 97.2554 6.008 98.7441 6.008C100.196 6.008 101.512 6.32104 102.692 6.9453C103.869 7.57138 104.794 8.46864 105.465 9.63526C106.137 10.8037 106.472 12.1614 106.472 13.7066C106.468 13.763 106.441 14.1489 106.386 14.8659ZM96.3126 10.0921C95.6501 10.6435 95.2461 11.3988 95.0987 12.3543H102.411C102.264 11.4152 101.86 10.6672 101.197 10.1048C100.535 9.54426 99.7251 9.26216 98.7696 9.26216C97.7941 9.26398 96.9751 9.54062 96.3126 10.0921Z" fill="white" />
	<path d="M119.659 7.64959C120.891 8.74341 121.508 10.396 121.508 12.6036V21.0757H117.479V19.2266C116.669 20.6062 115.16 21.2959 112.953 21.2959C111.811 21.2959 110.823 21.103 109.986 20.7172C109.149 20.3295 108.51 19.7963 108.068 19.1156C107.627 18.4349 107.405 17.6632 107.405 16.7969C107.405 15.4174 107.926 14.3326 108.965 13.5409C110.004 12.7492 111.609 12.3543 113.781 12.3543H117.202C117.202 11.4152 116.917 10.6945 116.347 10.1885C115.775 9.68253 114.92 9.42955 113.781 9.42955C112.989 9.42955 112.212 9.55331 111.449 9.80265C110.685 10.0502 110.037 10.3869 109.504 10.8091L107.959 7.80247C108.768 7.23281 109.739 6.79055 110.871 6.47751C112.003 6.16447 113.166 6.00977 114.361 6.00977C116.662 6.00795 118.427 6.55577 119.659 7.64959ZM115.99 17.8889C116.56 17.5486 116.966 17.0463 117.204 16.3838V14.8659H114.252C112.487 14.8659 111.602 15.4465 111.602 16.604C111.602 17.1573 111.819 17.5941 112.25 17.9144C112.681 18.2365 113.277 18.3967 114.03 18.3967C114.765 18.3985 115.419 18.2293 115.99 17.8889Z" fill="white" />
	<path d="M133.872 20.3587C133.448 20.6717 132.929 20.9065 132.312 21.063C131.695 21.2196 131.047 21.2978 130.367 21.2978C128.601 21.2978 127.234 20.8465 126.268 19.9456C125.302 19.0428 124.819 17.7197 124.819 15.9707V9.87187H122.528V6.55947H124.819V2.94495H129.124V6.56129H132.822V9.87369H129.124V15.9179C129.124 16.5422 129.284 17.0263 129.606 17.3666C129.928 17.707 130.383 17.8762 130.971 17.8762C131.651 17.8762 132.23 17.6924 132.709 17.3248L133.872 20.3587Z" fill="white" />
	<path d="M138.136 20.3168C136.895 19.6635 135.923 18.7571 135.224 17.5978C134.525 16.4384 134.176 15.1244 134.176 13.652C134.176 12.1796 134.525 10.8656 135.224 9.70442C135.923 8.54508 136.893 7.64054 138.136 6.98716C139.378 6.33378 140.781 6.008 142.344 6.008C143.908 6.008 145.307 6.3356 146.539 6.98716C147.771 7.64054 148.738 8.5469 149.437 9.70442C150.136 10.8638 150.485 12.1796 150.485 13.652C150.485 15.1244 150.136 16.4384 149.437 17.5978C148.738 18.7571 147.771 19.6635 146.539 20.3168C145.307 20.9702 143.908 21.296 142.344 21.296C140.781 21.296 139.378 20.9702 138.136 20.3168ZM145.063 16.6459C145.771 15.9015 146.126 14.9023 146.126 13.652C146.126 12.4017 145.771 11.4025 145.063 10.6563C144.355 9.9119 143.449 9.5388 142.344 9.5388C141.241 9.5388 140.329 9.9119 139.612 10.6563C138.895 11.4007 138.535 12.3998 138.535 13.652C138.535 14.9023 138.893 15.9015 139.612 16.6459C140.329 17.3903 141.241 17.7634 142.344 17.7634C143.447 17.7634 144.353 17.3921 145.063 16.6459Z" fill="white" />
	<path d="M158.448 6.55946C159.321 6.19182 160.328 6.008 161.469 6.008V9.98105C160.99 9.94465 160.668 9.92646 160.502 9.92646C159.27 9.92646 158.304 10.2723 157.605 10.962C156.906 11.6518 156.557 12.6874 156.557 14.0651V21.0758H152.252V6.22822H156.364V8.18836C156.879 7.46946 157.572 6.9271 158.448 6.55946Z" fill="white" />
	<path d="M164.917 20.8409C163.74 20.537 162.801 20.1566 162.102 19.6962L163.538 16.604C164.2 17.028 164.999 17.372 165.938 17.6396C166.876 17.9071 167.797 18.04 168.698 18.04C170.519 18.04 171.429 17.5886 171.429 16.6877C171.429 16.2636 171.182 15.9615 170.685 15.7759C170.188 15.5921 169.426 15.4355 168.394 15.3063C167.18 15.1225 166.177 14.9114 165.385 14.673C164.594 14.4345 163.909 14.0105 163.329 13.4044C162.748 12.7965 162.459 11.932 162.459 10.8091C162.459 9.87181 162.73 9.03825 163.272 8.31207C163.815 7.58589 164.606 7.01987 165.645 6.61583C166.685 6.21179 167.913 6.00977 169.329 6.00977C170.377 6.00977 171.422 6.12443 172.461 6.35375C173.501 6.58489 174.361 6.90157 175.042 7.30743L173.608 10.3705C172.301 9.63521 170.876 9.26575 169.331 9.26575C168.412 9.26575 167.72 9.39497 167.262 9.65341C166.801 9.91185 166.572 10.2431 166.572 10.6471C166.572 11.1076 166.819 11.4297 167.316 11.6135C167.813 11.7974 168.603 11.9721 169.69 12.1377C170.903 12.3397 171.897 12.5563 172.671 12.7856C173.444 13.0149 174.114 13.4335 174.685 14.0414C175.255 14.6493 175.541 15.4956 175.541 16.5803C175.541 17.5012 175.264 18.3184 174.713 19.0373C174.161 19.7562 173.355 20.3113 172.298 20.7063C171.24 21.1012 169.984 21.2996 168.53 21.2996C167.3 21.2959 166.095 21.1449 164.917 20.8409Z" fill="white" />
	<path d="M24.9267 16.1708C24.2533 16.1708 21.9801 16.1708 21.3522 16.1708C18.7788 16.1708 16.5292 13.8649 16.5256 11.417C16.5292 8.96906 18.7788 6.66312 21.3522 6.66312C21.9801 6.66312 24.2533 6.66312 24.9267 6.66312C26.5356 6.66312 26.9123 5.40368 28.978 0.291299H19.3448C19.3448 0.296759 19.3448 0.296759 19.3448 0.302219C17.2536 0.222139 15.1661 1.16308 13.8757 3.00674L13.1022 4.10966L13.0967 4.09874L11.7681 5.997C11.7681 5.997 10.0318 3.4763 9.6551 2.93758C7.57302 -0.0435807 3.70006 0.291299 0 0.291299L6.61934 9.73892C6.89962 10.1393 7.14532 10.8127 7.14714 11.417C7.14714 12.0212 6.89962 12.6946 6.61934 13.095L0 22.5426C3.70006 22.5426 7.57302 22.8757 9.65692 19.8982C10.0337 19.3594 11.7699 16.8387 11.7699 16.8387L13.0985 18.737L13.104 18.7261L13.8775 19.829C15.1679 21.6727 17.2536 22.6136 19.3466 22.5335C19.3466 22.539 19.3466 22.539 19.3466 22.5444H28.9799C26.9142 17.4302 26.5374 16.1708 24.9267 16.1708Z" fill="url(#paint0_linear_394_28439)" />
	<path opacity="0.56" d="M11.7699 5.99513C11.7699 5.99513 10.0337 3.47443 9.65692 2.93571C7.57302 -0.0436305 3.70006 0.291249 0 0.291249C0 0.291249 0.0673399 0.387709 0.17654 0.544229L0.79534 1.42693C1.14478 1.92561 1.56884 2.52985 1.98562 3.12681L2.19856 3.42893C2.72636 4.18241 3.21776 4.88311 3.49258 5.27441C5.54736 8.20825 9.92446 8.39207 11.7699 5.99513Z" fill="url(#paint1_linear_394_28439)" />
	<path opacity="0.56" d="M21.3524 6.66302C21.9803 6.66302 24.2535 6.66302 24.9269 6.66302C26.5358 6.66302 26.9125 5.40358 28.9782 0.291199H27.3184C22.8557 0.291199 16.5458 6.0606 16.5276 11.3932C16.5276 11.3877 16.5294 11.3786 16.5294 11.3786C16.5585 8.94348 18.7917 6.66302 21.3524 6.66302Z" fill="url(#paint2_linear_394_28439)" />
	<path opacity="0.56" d="M3.49258 17.5577C3.21776 17.9508 2.72636 18.6515 2.19856 19.4032L1.98562 19.7053C1.56702 20.3023 1.14478 20.9047 0.79534 21.4052L0.17654 22.2879C0.0673399 22.4426 0 22.5409 0 22.5409C3.70006 22.5409 7.57302 22.8739 9.65692 19.8964C10.0337 19.3577 11.7699 16.837 11.7699 16.837C9.92446 14.4419 5.54736 14.6239 3.49258 17.5577Z" fill="url(#paint3_linear_394_28439)" />
	<path opacity="0.56" d="M21.3524 16.1579C21.9803 16.1579 24.2535 16.1579 24.9269 16.1579C26.5358 16.1579 26.9125 17.4173 28.9782 22.5297H27.3184C22.8557 22.5297 16.5458 16.7603 16.5276 11.4277C16.5276 11.4331 16.5294 11.4422 16.5294 11.4422C16.5585 13.8774 18.7917 16.1579 21.3524 16.1579Z" fill="url(#paint4_linear_394_28439)" />
	<defs>
		<linearGradient id="paint0_linear_394_28439" x1="-0.383638" y1="22.6703" x2="34.1392" y2="-3.45177" gradientUnits="userSpaceOnUse">
			<stop stop-color="#FBB301" />
			<stop offset="0.4606" stop-color="#FAD502" />
			<stop offset="1" stop-color="#C56807" />
		</linearGradient>
		<linearGradient id="paint1_linear_394_28439" x1="5.7279" y1="7.66179" x2="5.97319" y2="0.610059" gradientUnits="userSpaceOnUse">
			<stop stop-color="#944D00" />
			<stop offset="0.0127" stop-color="#944D00" stop-opacity="0.9849" />
			<stop offset="0.8408" stop-color="#8C4D00" stop-opacity="0" />
		</linearGradient>
		<linearGradient id="paint2_linear_394_28439" x1="20.767" y1="3.26881" x2="24.5075" y2="8.11303" gradientUnits="userSpaceOnUse">
			<stop stop-color="#9F5300" />
			<stop offset="0.4651" stop-color="#944F00" stop-opacity="0.5349" />
			<stop offset="1" stop-color="#8C4D00" stop-opacity="0" />
		</linearGradient>
		<linearGradient id="paint3_linear_394_28439" x1="5.71928" y1="14.6329" x2="5.96456" y2="22.1139" gradientUnits="userSpaceOnUse">
			<stop stop-color="#944D00" />
			<stop offset="0.0127" stop-color="#944D00" stop-opacity="0.9849" />
			<stop offset="0.8408" stop-color="#8C4D00" stop-opacity="0" />
		</linearGradient>
		<linearGradient id="paint4_linear_394_28439" x1="20.767" y1="19.5522" x2="24.5075" y2="14.708" gradientUnits="userSpaceOnUse">
			<stop stop-color="#9F5300" />
			<stop offset="0.4651" stop-color="#944F00" stop-opacity="0.5349" />
			<stop offset="1" stop-color="#8C4D00" stop-opacity="0" />
		</linearGradient>
	</defs>
</svg>
